<svg width="41" height="40" viewBox="0 0 41 40" fill="none" xmlns="http://www.w3.org/2000/svg">
<rect x="0.712952" width="40" height="40" rx="20" fill="#F7F7F7"/>
<g clip-path="url(#clip0_1_1187)">
<path d="M19.0463 14.1667C19.0463 13.7246 19.2219 13.3007 19.5344 12.9882C19.847 12.6756 20.2709 12.5 20.7129 12.5C21.155 12.5 21.5789 12.6756 21.8914 12.9882C22.204 13.3007 22.3796 13.7246 22.3796 14.1667C23.3366 14.6192 24.1524 15.3236 24.7396 16.2044C25.3268 17.0852 25.6633 18.1092 25.7129 19.1667V21.6667C25.7756 22.1848 25.9591 22.6809 26.2486 23.1151C26.5381 23.5493 26.9255 23.9095 27.3796 24.1667H14.0463C14.5004 23.9095 14.8878 23.5493 15.1773 23.1151C15.4667 22.6809 15.6502 22.1848 15.7129 21.6667V19.1667C15.7626 18.1092 16.099 17.0852 16.6862 16.2044C17.2734 15.3236 18.0893 14.6192 19.0463 14.1667" stroke="#1D1D1F" stroke-width="1.5" stroke-linecap="round" stroke-linejoin="round"/>
<path d="M18.213 24.1667V25.0001C18.213 25.6631 18.4763 26.299 18.9452 26.7678C19.414 27.2367 20.0499 27.5001 20.713 27.5001C21.376 27.5001 22.0119 27.2367 22.4807 26.7678C22.9496 26.299 23.213 25.6631 23.213 25.0001V24.1667" stroke="#1D1D1F" stroke-width="1.5" stroke-linecap="round" stroke-linejoin="round"/>
</g>
<defs>
<clipPath id="clip0_1_1187">
<rect width="20" height="20" fill="white" transform="translate(10.713 10)"/>
</clipPath>
</defs>
</svg>
