<svg width="41" height="41" viewBox="0 0 41 41" fill="none" xmlns="http://www.w3.org/2000/svg">
<rect x="0.681641" y="0.0435791" width="40" height="40" rx="20" fill="#F7F7F7"/>
<path d="M19.8184 25.3068H21.485V20.0127H19.8184V25.3068ZM20.6517 12.0715C16.0475 12.0715 12.3184 16.0201 12.3184 20.8951C12.3184 25.7701 16.0475 29.7186 20.6517 29.7186C25.2559 29.7186 28.985 25.7701 28.985 20.8951C28.985 16.0201 25.2559 12.0715 20.6517 12.0715ZM20.6517 27.9539C16.9767 27.9539 13.985 24.7862 13.985 20.8951C13.985 17.0039 16.9767 13.8362 20.6517 13.8362C24.3267 13.8362 27.3184 17.0039 27.3184 20.8951C27.3184 24.7862 24.3267 27.9539 20.6517 27.9539ZM19.8184 18.248H21.485V16.4833H19.8184V18.248Z" fill="black"/>
</svg>
