<svg width="41" height="40" viewBox="0 0 41 40" fill="none" xmlns="http://www.w3.org/2000/svg">
<rect x="0.712952" width="40" height="40" rx="20" fill="#F7F7F7"/>
<path d="M12.3796 24.9384C12.3796 24.4323 12.5086 23.9345 12.7544 23.492L17.9094 14.2132C18.3663 13.3907 19.1614 12.8103 20.084 12.6258V12.6258C20.4992 12.5428 20.9267 12.5428 21.342 12.6258V12.6258C22.2646 12.8103 23.0596 13.3907 23.5166 14.2132L28.6715 23.492C28.9173 23.9345 29.0463 24.4323 29.0463 24.9384V24.9384C29.0463 26.5833 27.7129 27.9167 26.068 27.9167H15.3579C13.713 27.9167 12.3796 26.5833 12.3796 24.9384V24.9384Z" stroke="#F23152" stroke-width="1.5"/>
<path d="M20.713 17.4999L20.713 20.8333" stroke="#F23152" stroke-width="1.5" stroke-linecap="round" stroke-linejoin="round"/>
<path d="M20.713 23.3333L20.713 23.75" stroke="#F23152" stroke-width="1.5" stroke-linecap="round" stroke-linejoin="round"/>
</svg>
